<svg xmlns="http://www.w3.org/2000/svg" xmlns:xlink="http://www.w3.org/1999/xlink" width="537.974365234375" height="465.8951110839844" viewBox="0 0 537.974365234375 465.8951110839844" fill="none">
<path   fill-rule="evenodd"  fill="#000C59"  d="M236.999 53.5L236.999 2.5L226.999 2.5L4.32928 2.5L6.49928 6.26L8.66928 10L8.66928 10.01L264.669 453.4L266.829 457.15L268.989 460.9L271.159 457.16L273.329 453.41L273.329 453.4L401.329 231.7L401.339 231.7L401.339 231.69L404.999 225.24L405.079 225.28L410.929 215.12L365.489 189L365.359 189.22L365.349 189.22L356.189 204.45L355.839 205.04L355.839 205.08L268.999 355.5L94.6593 53.5L236.499 53.5L236.999 53.5ZM367.949 203.93L364.849 209.48L364.679 209.78L364.659 209.8L273.329 368L273.329 368.01L271.159 371.76L268.989 375.5L266.829 371.75L264.669 368L81.6693 51.01L81.6693 51L79.4993 47.26L77.3293 43.5L226.999 43.5L226.999 12.5L21.6593 12.5L268.999 440.9L392.669 226.7L392.679 226.7L392.679 226.69L396.429 220.31L367.949 203.93ZM285.999 2.5L275.999 2.5L275.999 50.5L285.999 50.5L443.499 51L395.999 136L308.499 45L303.499 49L390.999 142.5L380.809 163.29L375.999 171.66L421.429 197.79L427.269 187.63L427.189 187.58L465.329 120.85L465.339 120.84L529.329 10L531.489 6.25L533.649 2.5L285.999 2.5ZM285.999 43.5L285.999 12.5L516.339 12.5L456.669 115.85L456.669 115.86L456.659 115.87L418.759 182.73L390.199 166.31L410.589 130.23L410.859 129.76L456.329 51L458.489 47.25L460.649 43.5L285.999 43.5ZM268.999 450.9L393.129 235.91L271.159 447.15L268.999 450.9ZM268.999 365.5L316.829 282.65L271.159 361.75L268.999 365.5Z">
</path>
<path    stroke="rgba(0, 12, 89, 1)" stroke-width="5"    d="M236.999 53.5L236.999 2.5L226.999 2.5L4.32928 2.5L6.49928 6.26L8.66928 10L8.66928 10.01L264.669 453.4L266.829 457.15L268.989 460.9L271.159 457.16L273.329 453.41L273.329 453.4L401.329 231.7L401.339 231.7L401.339 231.69L404.999 225.24L405.079 225.28L410.929 215.12L365.489 189L365.359 189.22L365.349 189.22L356.189 204.45L355.839 205.04L355.839 205.08L268.999 355.5L94.6593 53.5L236.499 53.5L236.999 53.5ZM367.949 203.93L364.849 209.48L364.679 209.78L364.659 209.8L273.329 368L273.329 368.01L271.159 371.76L268.989 375.5L266.829 371.75L264.669 368L81.6693 51.01L81.6693 51L79.4993 47.26L77.3293 43.5L226.999 43.5L226.999 12.5L21.6593 12.5L268.999 440.9L392.669 226.7L392.679 226.7L392.679 226.69L396.429 220.31L367.949 203.93ZM285.999 2.5L275.999 2.5L275.999 50.5L285.999 50.5L443.499 51L395.999 136L308.499 45L303.499 49L390.999 142.5L380.809 163.29L375.999 171.66L421.429 197.79L427.269 187.63L427.189 187.58L465.329 120.85L465.339 120.84L529.329 10L531.489 6.25L533.649 2.5L285.999 2.5ZM285.999 43.5L285.999 12.5L516.339 12.5L456.669 115.85L456.669 115.86L456.659 115.87L418.759 182.73L390.199 166.31L410.589 130.23L410.859 129.76L456.329 51L458.489 47.25L460.649 43.5L285.999 43.5ZM268.999 450.9L393.129 235.91L271.159 447.15L268.999 450.9ZM268.999 365.5L316.829 282.65L271.159 361.75L268.999 365.5ZM285.999 50.5L285.999 43.5">
</path>
<path    stroke="rgba(0, 12, 89, 1)" stroke-width="15"    d="M357.376 46.6701L418.499 104.345">
</path>
<path d="M307.994 40.5L339.994 40.5L353.994 53.5L319.994 53.5L307.994 40.5Z"   fill="#FFFFFF" >
</path>
<path d="M423.497 119.005L412.495 149.496L385.996 121.997L403.498 100.5L423.497 119.005Z"   fill="#FFFFFF" >
</path>
</svg>
